<svg width="225" height="41" viewBox="0 0 225 41" fill="none" xmlns="http://www.w3.org/2000/svg">
<g clip-path="url(#clip0_285_230)">
<path d="M26.909 6.97274C24.3956 2.90063 19.7235 0.139404 14.3713 0.139404C9.01904 0.139404 4.34694 2.87274 1.83347 6.97274C0.591522 8.9809 -0.118164 11.3238 -0.118164 13.8061V27.4727H14.3713C22.3552 27.4727 28.8607 21.3646 28.8607 13.8061C28.8607 11.3238 28.151 8.9809 26.909 6.97274Z" fill="#9BC539"/>
<path d="M224.586 27.8075C224.379 27.4728 224.113 27.2218 223.788 27.0544C223.433 26.8592 223.048 26.7755 222.634 26.7755C222.22 26.7755 221.836 26.8592 221.481 27.0544C221.126 27.2497 220.86 27.5007 220.653 27.8354C220.446 28.1701 220.357 28.5327 220.357 28.8952C220.357 29.2857 220.446 29.6483 220.653 29.9551C220.86 30.2898 221.126 30.5408 221.452 30.7361C221.806 30.9313 222.161 31.015 222.605 31.015C223.019 31.015 223.403 30.9313 223.758 30.7361C224.113 30.5408 224.379 30.2898 224.586 29.9551C224.793 29.6204 224.882 29.2578 224.882 28.8674C224.882 28.4769 224.763 28.1422 224.586 27.8075ZM224.202 29.7599C224.054 30.0388 223.817 30.234 223.551 30.4014C223.285 30.5687 222.96 30.6245 222.634 30.6245C222.309 30.6245 221.984 30.5408 221.718 30.4014C221.452 30.2619 221.215 30.0388 221.067 29.7878C220.919 29.5367 220.831 29.2299 220.831 28.9231C220.831 28.5884 220.919 28.3095 221.067 28.0306C221.215 27.7517 221.452 27.5565 221.718 27.417C221.984 27.2497 222.309 27.1939 222.664 27.1939C223.019 27.1939 223.314 27.2776 223.61 27.417C223.876 27.5565 224.113 27.7796 224.261 28.0306C224.409 28.2816 224.497 28.5884 224.497 28.9231C224.438 29.202 224.349 29.5088 224.202 29.7599Z" fill="#101820"/>
<path d="M223.67 29.0067C223.758 28.8952 223.788 28.7278 223.788 28.5605C223.788 28.3095 223.699 28.1142 223.492 27.9469C223.285 27.8074 223.049 27.7238 222.694 27.7238H221.6V30.0666H222.25V29.3972H222.664H222.694L223.167 30.0666H223.817L223.285 29.2857C223.492 29.202 223.61 29.1183 223.67 29.0067ZM223.019 28.8394C222.93 28.8952 222.812 28.9231 222.664 28.9231H222.28V28.1979H222.664C222.812 28.1979 222.93 28.2258 223.019 28.2816C223.108 28.3374 223.137 28.4489 223.137 28.5605C223.137 28.6721 223.108 28.7557 223.019 28.8394Z" fill="#101820"/>
<path d="M170.886 23.1776C170.62 21.1973 169.911 19.468 168.816 18.0735C167.722 16.651 166.303 15.647 164.618 15.0055C162.902 14.364 161.069 14.1687 159.058 14.4197C157.018 14.6708 155.244 15.3123 153.736 16.3721C152.228 17.432 151.133 18.7708 150.424 20.4163C149.714 22.0619 149.507 23.8191 149.773 25.7157C150.039 27.6402 150.749 29.3136 151.902 30.7082C153.056 32.1027 154.564 33.1347 156.397 33.7762C158.23 34.4177 160.3 34.5851 162.577 34.3061C164.351 34.083 165.919 33.6089 167.249 32.9116C168.58 32.2143 169.644 31.266 170.443 30.0946L167.456 27.6123C166.185 29.2021 164.411 30.1504 162.134 30.4293C160.359 30.6524 158.792 30.4014 157.491 29.732C156.16 29.0347 155.273 28.0027 154.8 26.6082L171.005 24.6C170.975 23.9585 170.946 23.4844 170.886 23.1776ZM154.327 23.5123C154.357 22.0619 154.859 20.8068 155.806 19.8306C156.752 18.8265 157.994 18.2408 159.561 18.0456C161.128 17.8504 162.518 18.1293 163.701 18.8823C164.884 19.6354 165.682 20.6953 166.066 22.0898L154.327 23.5123Z" fill="#101820"/>
<path d="M111.007 30.1225H100.184L107.488 23.568C109.262 22.0061 110.445 20.6116 111.066 19.3844C111.687 18.1571 112.012 16.8463 112.012 15.4517C112.012 13.1646 111.125 11.3517 109.351 10.0408C107.577 8.72993 105.211 8.06055 102.254 8.06055C100.007 8.06055 98.7354 8.28368 96.9316 9.06463C94.8617 9.92925 92.6143 12.7463 92.2891 15.368H96.8133C97.6413 13.7225 99.0311 12.2442 101.84 12.2442C103.496 12.2442 104.768 12.551 105.625 13.1925C106.483 13.834 106.926 14.7544 106.926 15.9537C106.926 16.7626 106.719 17.5714 106.276 18.4082C105.832 19.2449 105.034 20.1932 103.792 21.3088L92.9396 31.015V34.2225H115.147C115.147 34.1667 112.308 32.549 111.007 30.1225Z" fill="#101820"/>
<path d="M124.875 18.185C125.94 18.185 126.915 18.4082 127.832 18.8544C128.719 19.3007 129.488 19.998 130.079 20.8905L133.835 18.8265C133.066 17.3483 131.883 16.2327 130.346 15.4517C128.808 14.6707 127.004 14.2803 124.934 14.2803C122.746 14.2803 120.794 14.6986 119.109 15.5633C117.394 16.4279 116.063 17.6272 115.117 19.1333C114.141 20.6673 113.668 22.3966 113.668 24.3211C113.668 26.2735 114.141 28.0027 115.117 29.5367C116.093 31.0707 117.423 32.2701 119.138 33.1347C120.854 33.9993 122.805 34.4177 124.964 34.4177C127.004 34.4177 128.778 34.0272 130.316 33.2184C131.854 32.4095 133.036 31.2939 133.835 29.8156L130.079 27.7517C129.488 28.6721 128.719 29.3415 127.832 29.7878C126.945 30.234 125.94 30.4571 124.875 30.4571C123.042 30.4571 121.504 29.8993 120.321 28.7837C119.138 27.668 118.547 26.1898 118.547 24.3211C118.547 22.4524 119.138 20.9741 120.351 19.8585C121.563 18.7429 123.071 18.185 124.875 18.185Z" fill="#101820"/>
<path d="M69.2834 14.5034H64.4043V34.1667H69.2834V14.5034Z" fill="#101820"/>
<path d="M90.0121 17.9061C90.0713 17.8503 90.1304 17.7666 90.16 17.7108C90.367 17.404 90.4557 17.0136 90.4557 16.6231C90.4557 15.4238 89.4503 14.4755 88.1788 14.4755H85.9019H73.0388V18.1571H84.2459L72.8022 31.2102V34.1108H90.781V30.4292H78.9529L90.0121 17.9061Z" fill="#101820"/>
<path d="M66.8585 12.9415C68.41 12.9415 69.6677 11.7552 69.6677 10.2919C69.6677 8.82851 68.41 7.64221 66.8585 7.64221C65.307 7.64221 64.0493 8.82851 64.0493 10.2919C64.0493 11.7552 65.307 12.9415 66.8585 12.9415Z" fill="#101820"/>
<path d="M202.172 12.9415C203.723 12.9415 204.981 11.7552 204.981 10.2919C204.981 8.82851 203.723 7.64221 202.172 7.64221C200.621 7.64221 199.363 8.82851 199.363 10.2919C199.363 11.7552 200.621 12.9415 202.172 12.9415Z" fill="#101820"/>
<path d="M55.5627 15.5353C53.9659 14.6986 52.1621 14.2802 50.1218 14.2802C48.7615 14.2802 47.5196 14.5033 46.3959 14.9496C45.2722 15.3958 44.2964 16.0373 43.4389 16.902V11.1564V9.17611V9.03666C43.4389 7.83734 42.4039 6.88904 41.162 6.88904H41.0141H38.5894V11.1843V34.1945H43.2319V31.6285C44.0303 32.5489 45.0357 33.2741 46.2185 33.7203C47.4013 34.1945 48.7024 34.4176 50.1513 34.4176C52.1917 34.4176 53.9955 33.9992 55.5923 33.1625C57.189 32.3258 58.4606 31.1543 59.3477 29.6203C60.2644 28.0863 60.7079 26.3292 60.7079 24.3489C60.7079 22.3686 60.2644 20.6115 59.3477 19.0775C58.4606 17.5435 57.189 16.372 55.5627 15.5353ZM54.025 28.7836C52.8718 29.8992 51.3933 30.485 49.5895 30.485C48.4067 30.485 47.3717 30.2339 46.4255 29.7319C45.4792 29.2299 44.74 28.5047 44.2077 27.5843C43.6754 26.6639 43.3797 25.5761 43.3797 24.3489C43.3797 23.1217 43.6459 22.0339 44.2077 21.1135C44.74 20.1931 45.5088 19.4679 46.4255 18.9659C47.3717 18.4639 48.4067 18.2128 49.5895 18.2128C51.3933 18.2128 52.8718 18.7707 54.025 19.9142C55.1783 21.0299 55.7697 22.536 55.7697 24.3768C55.7697 26.2176 55.2078 27.6679 54.025 28.7836Z" fill="#101820"/>
<path d="M141.346 17.3762V16.6789C141.346 15.4796 140.311 14.5313 139.069 14.5313H136.704V17.4041V34.1946H141.583V24.6558C141.583 22.7034 142.115 21.1973 143.18 20.1374C144.244 19.1054 145.723 18.5755 147.615 18.5755C147.94 18.5755 148.325 18.6034 148.739 18.6871V14.3082C145.22 14.2803 142.766 15.3122 141.346 17.3762Z" fill="#101820"/>
<path d="M190.019 9.00882V16.902C189.191 16.0374 188.215 15.3959 187.062 14.9496C185.938 14.5034 184.696 14.2803 183.336 14.2803C181.296 14.2803 179.492 14.6986 177.895 15.5354C176.298 16.3721 175.027 17.5435 174.14 19.0775C173.223 20.6115 172.779 22.3408 172.779 24.349C172.779 26.3292 173.223 28.0864 174.14 29.6204C175.056 31.1544 176.298 32.3258 177.895 33.1626C179.492 33.9993 181.296 34.4177 183.336 34.4177C184.755 34.4177 186.086 34.1945 187.269 33.7204C188.452 33.2462 189.457 32.549 190.255 31.6286V34.1666H194.898V6.86121H192.296C191.024 6.86121 190.019 7.8095 190.019 9.00882ZM189.28 27.5564C188.747 28.4769 187.978 29.202 187.062 29.7041C186.115 30.2061 185.081 30.4571 183.898 30.4571C182.094 30.4571 180.615 29.8993 179.462 28.7558C178.309 27.6401 177.718 26.134 177.718 24.2932C177.718 22.4524 178.309 20.9741 179.462 19.8306C180.615 18.7149 182.094 18.1292 183.898 18.1292C185.081 18.1292 186.115 18.3803 187.062 18.8823C188.008 19.3843 188.747 20.1095 189.28 21.0299C189.841 21.9503 190.107 23.0381 190.107 24.2653C190.078 25.5483 189.812 26.636 189.28 27.5564Z" fill="#101820"/>
<path d="M204.656 14.5034H199.777V34.1667H204.656V14.5034Z" fill="#101820"/>
<path d="M218.376 30.5129C218.376 30.5129 218.258 30.6244 217.164 30.6244C216.218 30.6244 215.508 30.3734 215.005 29.8714C214.503 29.3693 214.384 28.6163 214.384 27.668V18.3244H218.82V14.6428H214.384V12.3C214.384 11.1006 213.379 10.1523 212.108 10.1523H209.505V14.6428V18.3244V27.7796C209.505 29.9272 210.126 31.5727 211.368 32.7163C212.61 33.8319 214.384 34.4176 216.661 34.4176C217.578 34.4176 217.874 34.4455 218.82 34.2503C219.648 34.083 220.328 33.6925 220.919 33.2462C220.949 33.2462 219.5 32.2421 218.376 30.5129Z" fill="#101820"/>
<path d="M26.909 20.5C24.3956 16.4279 19.7235 13.6666 14.3713 13.6666C9.01904 13.6666 4.34694 16.4 1.83347 20.5C0.591522 22.5081 -0.118164 24.851 -0.118164 27.3333V41H14.3713C22.3552 41 28.8607 34.8918 28.8607 27.3333C28.8607 24.851 28.151 22.5081 26.909 20.5Z" fill="#228848"/>
</g>
<defs>
<clipPath id="clip0_285_230">
<rect width="225" height="41" fill="white"/>
</clipPath>
</defs>
</svg>
