<svg width="393" height="151" viewBox="0 0 393 151" fill="none" xmlns="http://www.w3.org/2000/svg">
<path d="M0.000138768 149.452L2.83688 150.664L4.75465 146.175L1.91791 144.963L0.000138768 149.452ZM64.869 104.739L62.0322 103.527L60.1144 108.016L62.9512 109.228L64.869 104.739ZM2.45698 148.307L62.5713 106.871L62.4121 105.884L2.29781 147.32L2.45698 148.307Z" fill="#1F8BFE" fill-opacity="0.74"/>
<path d="M59.6957 107.1L62.6654 109.259L65.2866 105.655L62.3169 103.495L59.6957 107.1ZM145.439 84.9365L142.469 82.7771L139.848 86.3817L142.818 88.5411L145.439 84.9365ZM62.5213 106.876L142.674 86.1583L142.613 85.1599L62.461 105.878L62.5213 106.876Z" fill="#1F8BFE" fill-opacity="0.74"/>
<path d="M140.079 86.985L142.99 88.5254L145.209 84.3331L142.297 82.7926L140.079 86.985ZM209.331 51.1841L206.419 49.6436L204.201 53.8359L207.112 55.3764L209.331 51.1841ZM142.704 86.1555L206.826 53.0065L206.706 52.0135L142.584 85.1626L142.704 86.1555Z" fill="#1F8BFE" fill-opacity="0.74"/>
<path d="M205.019 50.2114L205.916 55.2698L208.513 54.8091L207.615 49.7507L205.019 50.2114ZM274.638 141.825L273.741 136.767L271.144 137.228L272.042 142.286L274.638 141.825ZM206.618 52.9882L272.744 140.004L273.038 139.049L206.913 52.0323L206.618 52.9882Z" fill="#1F8BFE" fill-opacity="0.74"/>
<path d="M271.169 142.155L273.81 142.753L274.936 137.778L272.296 137.18L271.169 142.155ZM393 0.598028L390.359 0.000165231L389.233 4.97483L391.874 5.57269L393 0.598028ZM273.184 140.449L391.248 3.26902L390.985 2.30383L272.922 139.484L273.184 140.449Z" fill="#1F8BFE" fill-opacity="0.74"/>
</svg>
